<svg width="329" height="185" viewBox="0 0 329 185" fill="none" xmlns="http://www.w3.org/2000/svg">
<g filter="url(#filter0_d_1420_934)">
<rect x="16" y="16" width="297" height="153" rx="40" fill="white" shape-rendering="crispEdges"/>
<rect x="16.25" y="16.25" width="296.5" height="152.5" rx="39.75" stroke="#D8DCE0" stroke-width="0.5" shape-rendering="crispEdges"/>
<path d="M132.153 50L135.737 40.2H137.879L141.449 50H139.447L136.801 42.356L134.141 50H132.153ZM133.735 47.774L134.239 46.304H139.223L139.713 47.774H133.735ZM145.175 50C144.681 50 144.247 49.9253 143.873 49.776C143.509 49.6173 143.225 49.3607 143.019 49.006C142.814 48.642 142.711 48.1473 142.711 47.522V44.526H141.507V42.944H142.711L142.921 41.026H144.601V42.944H146.463V44.526H144.601V47.55C144.601 47.8673 144.671 48.0867 144.811 48.208C144.951 48.3293 145.189 48.39 145.525 48.39H146.449V50H145.175ZM151.232 50C150.737 50 150.303 49.9253 149.93 49.776C149.566 49.6173 149.281 49.3607 149.076 49.006C148.871 48.642 148.768 48.1473 148.768 47.522V44.526H147.564V42.944H148.768L148.978 41.026H150.658V42.944H152.52V44.526H150.658V47.55C150.658 47.8673 150.728 48.0867 150.868 48.208C151.008 48.3293 151.246 48.39 151.582 48.39H152.506V50H151.232ZM157.321 50.168C156.611 50.168 155.981 50.0187 155.431 49.72C154.889 49.412 154.465 48.9873 154.157 48.446C153.858 47.8953 153.709 47.2607 153.709 46.542C153.709 45.8047 153.858 45.156 154.157 44.596C154.465 44.0267 154.889 43.5833 155.431 43.266C155.972 42.9393 156.602 42.776 157.321 42.776C158.021 42.776 158.632 42.93 159.155 43.238C159.677 43.546 160.083 43.9613 160.373 44.484C160.662 45.0067 160.807 45.5993 160.807 46.262C160.807 46.3553 160.807 46.4627 160.807 46.584C160.807 46.696 160.797 46.8127 160.779 46.934H155.053V45.786H158.903C158.875 45.3287 158.711 44.9693 158.413 44.708C158.123 44.4467 157.759 44.316 157.321 44.316C157.003 44.316 156.709 44.3907 156.439 44.54C156.168 44.68 155.953 44.8993 155.795 45.198C155.645 45.4967 155.571 45.8747 155.571 46.332V46.738C155.571 47.1207 155.641 47.4567 155.781 47.746C155.93 48.026 156.135 48.2453 156.397 48.404C156.658 48.5533 156.961 48.628 157.307 48.628C157.652 48.628 157.937 48.5533 158.161 48.404C158.394 48.2547 158.567 48.0633 158.679 47.83H160.611C160.48 48.2687 160.261 48.6653 159.953 49.02C159.645 49.3747 159.267 49.6547 158.819 49.86C158.371 50.0653 157.871 50.168 157.321 50.168ZM162.355 50V42.944H164.021L164.161 44.092C164.375 43.7 164.679 43.3827 165.071 43.14C165.472 42.8973 165.948 42.776 166.499 42.776C167.087 42.776 167.581 42.8973 167.983 43.14C168.384 43.3827 168.687 43.7373 168.893 44.204C169.107 44.6707 169.215 45.2447 169.215 45.926V50H167.339V46.108C167.339 45.548 167.217 45.1187 166.975 44.82C166.741 44.5213 166.377 44.372 165.883 44.372C165.565 44.372 165.281 44.4467 165.029 44.596C164.786 44.7453 164.595 44.96 164.455 45.24C164.315 45.5107 164.245 45.842 164.245 46.234V50H162.355ZM174.173 50C173.679 50 173.245 49.9253 172.871 49.776C172.507 49.6173 172.223 49.3607 172.017 49.006C171.812 48.642 171.709 48.1473 171.709 47.522V44.526H170.505V42.944H171.709L171.919 41.026H173.599V42.944H175.461V44.526H173.599V47.55C173.599 47.8673 173.669 48.0867 173.809 48.208C173.949 48.3293 174.187 48.39 174.523 48.39H175.447V50H174.173ZM177.094 50V42.944H178.984V50H177.094ZM178.046 41.978C177.71 41.978 177.43 41.88 177.206 41.684C176.991 41.4787 176.884 41.222 176.884 40.914C176.884 40.606 176.991 40.354 177.206 40.158C177.43 39.9527 177.71 39.85 178.046 39.85C178.391 39.85 178.671 39.9527 178.886 40.158C179.11 40.354 179.222 40.606 179.222 40.914C179.222 41.222 179.11 41.4787 178.886 41.684C178.671 41.88 178.391 41.978 178.046 41.978ZM184.226 50.168C183.554 50.168 182.947 50.014 182.406 49.706C181.874 49.3887 181.449 48.9547 181.132 48.404C180.824 47.844 180.67 47.2047 180.67 46.486C180.67 45.7487 180.824 45.1047 181.132 44.554C181.449 43.994 181.878 43.56 182.42 43.252C182.961 42.9347 183.568 42.776 184.24 42.776C184.921 42.776 185.528 42.9347 186.06 43.252C186.601 43.56 187.026 43.994 187.334 44.554C187.651 45.1047 187.81 45.744 187.81 46.472C187.81 47.2 187.651 47.844 187.334 48.404C187.026 48.9547 186.601 49.3887 186.06 49.706C185.518 50.014 184.907 50.168 184.226 50.168ZM184.226 48.53C184.543 48.53 184.823 48.4553 185.066 48.306C185.318 48.1567 185.514 47.928 185.654 47.62C185.803 47.312 185.878 46.9293 185.878 46.472C185.878 46.0147 185.803 45.6367 185.654 45.338C185.514 45.03 185.318 44.8013 185.066 44.652C184.823 44.4933 184.548 44.414 184.24 44.414C183.941 44.414 183.666 44.4933 183.414 44.652C183.162 44.8013 182.961 45.03 182.812 45.338C182.672 45.6367 182.602 46.0147 182.602 46.472C182.602 46.9293 182.672 47.312 182.812 47.62C182.961 47.928 183.157 48.1567 183.4 48.306C183.652 48.4553 183.927 48.53 184.226 48.53ZM189.439 50V42.944H191.105L191.245 44.092C191.459 43.7 191.763 43.3827 192.155 43.14C192.556 42.8973 193.032 42.776 193.583 42.776C194.171 42.776 194.665 42.8973 195.067 43.14C195.468 43.3827 195.771 43.7373 195.977 44.204C196.191 44.6707 196.299 45.2447 196.299 45.926V50H194.423V46.108C194.423 45.548 194.301 45.1187 194.059 44.82C193.825 44.5213 193.461 44.372 192.967 44.372C192.649 44.372 192.365 44.4467 192.113 44.596C191.87 44.7453 191.679 44.96 191.539 45.24C191.399 45.5107 191.329 45.842 191.329 46.234V50H189.439Z" fill="#EE1D52"/>
<path fill-rule="evenodd" clip-rule="evenodd" d="M121 38C117.134 38 114 41.134 114 45C114 48.8659 117.134 52 121 52C124.866 52 128 48.8659 128 45C128 41.134 124.866 38 121 38ZM115.004 45C115.004 41.6885 117.689 39.0041 121 39.0041C124.311 39.0041 126.996 41.6885 126.996 45C126.996 48.3114 124.311 50.9959 121 50.9959C117.689 50.9959 115.004 48.3114 115.004 45ZM121.793 41.8294C121.793 42.2672 121.438 42.6221 121 42.6221C120.562 42.6221 120.207 42.2672 120.207 41.8294C120.207 41.3916 120.562 41.0367 121 41.0367C121.438 41.0367 121.793 41.3916 121.793 41.8294ZM119.415 43.4148H119.943H121C121.292 43.4148 121.529 43.6514 121.529 43.9433V47.6426H122.057H122.586V48.6996H122.057H121H119.943H119.415V47.6426H119.943H120.472V44.4718H119.943H119.415V43.4148Z" fill="#EE1D52"/>
<path d="M47.315 82L51.17 71.5H52.805L56.66 82H55.055L51.98 73.3L48.89 82H47.315ZM49.055 79.405L49.475 78.205H54.41L54.83 79.405H49.055ZM58.081 82V74.44H59.431L59.566 75.865C59.736 75.525 59.956 75.24 60.226 75.01C60.496 74.77 60.811 74.585 61.171 74.455C61.541 74.325 61.961 74.26 62.431 74.26V75.85H61.891C61.581 75.85 61.286 75.89 61.006 75.97C60.726 76.04 60.476 76.165 60.256 76.345C60.046 76.525 59.881 76.77 59.761 77.08C59.641 77.39 59.581 77.775 59.581 78.235V82H58.081ZM67.0088 82.18C66.2888 82.18 65.6488 82.015 65.0888 81.685C64.5288 81.355 64.0888 80.895 63.7688 80.305C63.4588 79.715 63.3038 79.03 63.3038 78.25C63.3038 77.45 63.4588 76.755 63.7688 76.165C64.0888 75.565 64.5288 75.1 65.0888 74.77C65.6488 74.43 66.2988 74.26 67.0388 74.26C67.7788 74.26 68.4138 74.425 68.9438 74.755C69.4738 75.085 69.8838 75.525 70.1738 76.075C70.4638 76.615 70.6088 77.215 70.6088 77.875C70.6088 77.975 70.6038 78.085 70.5938 78.205C70.5938 78.315 70.5888 78.44 70.5788 78.58H64.3988V77.515H69.1088C69.0788 76.885 68.8688 76.395 68.4788 76.045C68.0888 75.685 67.6038 75.505 67.0238 75.505C66.6138 75.505 66.2388 75.6 65.8988 75.79C65.5588 75.97 65.2838 76.24 65.0738 76.6C64.8738 76.95 64.7738 77.395 64.7738 77.935V78.355C64.7738 78.915 64.8738 79.39 65.0738 79.78C65.2838 80.16 65.5588 80.45 65.8988 80.65C66.2388 80.84 66.6088 80.935 67.0088 80.935C67.4888 80.935 67.8838 80.83 68.1938 80.62C68.5038 80.41 68.7338 80.125 68.8838 79.765H70.3838C70.2538 80.225 70.0338 80.64 69.7238 81.01C69.4138 81.37 69.0288 81.655 68.5688 81.865C68.1188 82.075 67.5988 82.18 67.0088 82.18ZM76.9833 85.3L78.8283 81.16H78.3933L75.4083 74.44H77.0283L79.3983 79.93L81.7833 74.44H83.3583L78.5583 85.3H76.9833ZM87.4441 82.18C86.7341 82.18 86.0941 82.015 85.5241 81.685C84.9641 81.355 84.5191 80.895 84.1891 80.305C83.8691 79.705 83.7091 79.015 83.7091 78.235C83.7091 77.435 83.8741 76.74 84.2041 76.15C84.5341 75.55 84.9841 75.085 85.5541 74.755C86.1241 74.425 86.7641 74.26 87.4741 74.26C88.1941 74.26 88.8341 74.425 89.3941 74.755C89.9541 75.085 90.3941 75.545 90.7141 76.135C91.0441 76.725 91.2091 77.42 91.2091 78.22C91.2091 79.02 91.0441 79.715 90.7141 80.305C90.3941 80.895 89.9491 81.355 89.3791 81.685C88.8091 82.015 88.1641 82.18 87.4441 82.18ZM87.4441 80.89C87.8541 80.89 88.2241 80.79 88.5541 80.59C88.8941 80.39 89.1641 80.095 89.3641 79.705C89.5741 79.305 89.6791 78.81 89.6791 78.22C89.6791 77.63 89.5791 77.14 89.3791 76.75C89.1791 76.35 88.9091 76.05 88.5691 75.85C88.2391 75.65 87.8741 75.55 87.4741 75.55C87.0741 75.55 86.7041 75.65 86.3641 75.85C86.0241 76.05 85.7491 76.35 85.5391 76.75C85.3391 77.14 85.2391 77.63 85.2391 78.22C85.2391 78.81 85.3391 79.305 85.5391 79.705C85.7491 80.095 86.0191 80.39 86.3491 80.59C86.6891 80.79 87.0541 80.89 87.4441 80.89ZM95.7486 82.18C95.1586 82.18 94.6436 82.06 94.2036 81.82C93.7736 81.58 93.4386 81.22 93.1986 80.74C92.9686 80.26 92.8536 79.655 92.8536 78.925V74.44H94.3536V78.76C94.3536 79.47 94.5086 80.005 94.8186 80.365C95.1286 80.725 95.5736 80.905 96.1536 80.905C96.5436 80.905 96.8936 80.81 97.2036 80.62C97.5236 80.43 97.7736 80.155 97.9536 79.795C98.1336 79.435 98.2236 78.995 98.2236 78.475V74.44H99.7236V82H98.3886L98.2836 80.71C98.0536 81.17 97.7186 81.53 97.2786 81.79C96.8386 82.05 96.3286 82.18 95.7486 82.18ZM108.54 82.18C107.9 82.18 107.34 82.075 106.86 81.865C106.38 81.655 106 81.36 105.72 80.98C105.44 80.6 105.27 80.155 105.21 79.645H106.74C106.79 79.885 106.885 80.105 107.025 80.305C107.175 80.505 107.375 80.665 107.625 80.785C107.885 80.905 108.19 80.965 108.54 80.965C108.87 80.965 109.14 80.92 109.35 80.83C109.57 80.73 109.73 80.6 109.83 80.44C109.93 80.27 109.98 80.09 109.98 79.9C109.98 79.62 109.91 79.41 109.77 79.27C109.64 79.12 109.44 79.005 109.17 78.925C108.91 78.835 108.595 78.755 108.225 78.685C107.875 78.625 107.535 78.545 107.205 78.445C106.885 78.335 106.595 78.2 106.335 78.04C106.085 77.88 105.885 77.68 105.735 77.44C105.585 77.19 105.51 76.885 105.51 76.525C105.51 76.095 105.625 75.71 105.855 75.37C106.085 75.02 106.41 74.75 106.83 74.56C107.26 74.36 107.765 74.26 108.345 74.26C109.185 74.26 109.86 74.46 110.37 74.86C110.88 75.26 111.18 75.825 111.27 76.555H109.815C109.775 76.215 109.625 75.955 109.365 75.775C109.105 75.585 108.76 75.49 108.33 75.49C107.9 75.49 107.57 75.575 107.34 75.745C107.11 75.915 106.995 76.14 106.995 76.42C106.995 76.6 107.06 76.76 107.19 76.9C107.32 77.04 107.51 77.16 107.76 77.26C108.02 77.35 108.335 77.435 108.705 77.515C109.235 77.615 109.71 77.74 110.13 77.89C110.55 78.04 110.885 78.26 111.135 78.55C111.385 78.84 111.51 79.255 111.51 79.795C111.52 80.265 111.4 80.68 111.15 81.04C110.91 81.4 110.565 81.68 110.115 81.88C109.675 82.08 109.15 82.18 108.54 82.18ZM116.051 82.18C115.461 82.18 114.946 82.06 114.506 81.82C114.076 81.58 113.741 81.22 113.501 80.74C113.271 80.26 113.156 79.655 113.156 78.925V74.44H114.656V78.76C114.656 79.47 114.811 80.005 115.121 80.365C115.431 80.725 115.876 80.905 116.456 80.905C116.846 80.905 117.196 80.81 117.506 80.62C117.826 80.43 118.076 80.155 118.256 79.795C118.436 79.435 118.526 78.995 118.526 78.475V74.44H120.026V82H118.691L118.586 80.71C118.356 81.17 118.021 81.53 117.581 81.79C117.141 82.05 116.631 82.18 116.051 82.18ZM122.08 82V74.44H123.43L123.565 75.865C123.735 75.525 123.955 75.24 124.225 75.01C124.495 74.77 124.81 74.585 125.17 74.455C125.54 74.325 125.96 74.26 126.43 74.26V75.85H125.89C125.58 75.85 125.285 75.89 125.005 75.97C124.725 76.04 124.475 76.165 124.255 76.345C124.045 76.525 123.88 76.77 123.76 77.08C123.64 77.39 123.58 77.775 123.58 78.235V82H122.08ZM131.008 82.18C130.288 82.18 129.648 82.015 129.088 81.685C128.528 81.355 128.088 80.895 127.768 80.305C127.458 79.715 127.303 79.03 127.303 78.25C127.303 77.45 127.458 76.755 127.768 76.165C128.088 75.565 128.528 75.1 129.088 74.77C129.648 74.43 130.298 74.26 131.038 74.26C131.778 74.26 132.413 74.425 132.943 74.755C133.473 75.085 133.883 75.525 134.173 76.075C134.463 76.615 134.608 77.215 134.608 77.875C134.608 77.975 134.603 78.085 134.593 78.205C134.593 78.315 134.588 78.44 134.578 78.58H128.398V77.515H133.108C133.078 76.885 132.868 76.395 132.478 76.045C132.088 75.685 131.603 75.505 131.023 75.505C130.613 75.505 130.238 75.6 129.898 75.79C129.558 75.97 129.283 76.24 129.073 76.6C128.873 76.95 128.773 77.395 128.773 77.935V78.355C128.773 78.915 128.873 79.39 129.073 79.78C129.283 80.16 129.558 80.45 129.898 80.65C130.238 80.84 130.608 80.935 131.008 80.935C131.488 80.935 131.883 80.83 132.193 80.62C132.503 80.41 132.733 80.125 132.883 79.765H134.383C134.253 80.225 134.033 80.64 133.723 81.01C133.413 81.37 133.028 81.655 132.568 81.865C132.118 82.075 131.598 82.18 131.008 82.18ZM140.982 85.3L142.827 81.16H142.392L139.407 74.44H141.027L143.397 79.93L145.782 74.44H147.357L142.557 85.3H140.982ZM151.443 82.18C150.733 82.18 150.093 82.015 149.523 81.685C148.963 81.355 148.518 80.895 148.188 80.305C147.868 79.705 147.708 79.015 147.708 78.235C147.708 77.435 147.873 76.74 148.203 76.15C148.533 75.55 148.983 75.085 149.553 74.755C150.123 74.425 150.763 74.26 151.473 74.26C152.193 74.26 152.833 74.425 153.393 74.755C153.953 75.085 154.393 75.545 154.713 76.135C155.043 76.725 155.208 77.42 155.208 78.22C155.208 79.02 155.043 79.715 154.713 80.305C154.393 80.895 153.948 81.355 153.378 81.685C152.808 82.015 152.163 82.18 151.443 82.18ZM151.443 80.89C151.853 80.89 152.223 80.79 152.553 80.59C152.893 80.39 153.163 80.095 153.363 79.705C153.573 79.305 153.678 78.81 153.678 78.22C153.678 77.63 153.578 77.14 153.378 76.75C153.178 76.35 152.908 76.05 152.568 75.85C152.238 75.65 151.873 75.55 151.473 75.55C151.073 75.55 150.703 75.65 150.363 75.85C150.023 76.05 149.748 76.35 149.538 76.75C149.338 77.14 149.238 77.63 149.238 78.22C149.238 78.81 149.338 79.305 149.538 79.705C149.748 80.095 150.018 80.39 150.348 80.59C150.688 80.79 151.053 80.89 151.443 80.89ZM159.748 82.18C159.158 82.18 158.643 82.06 158.203 81.82C157.773 81.58 157.438 81.22 157.198 80.74C156.968 80.26 156.853 79.655 156.853 78.925V74.44H158.353V78.76C158.353 79.47 158.508 80.005 158.818 80.365C159.128 80.725 159.573 80.905 160.153 80.905C160.543 80.905 160.893 80.81 161.203 80.62C161.523 80.43 161.773 80.155 161.953 79.795C162.133 79.435 162.223 78.995 162.223 78.475V74.44H163.723V82H162.388L162.283 80.71C162.053 81.17 161.718 81.53 161.278 81.79C160.838 82.05 160.328 82.18 159.748 82.18ZM171.144 82L168.924 74.44H170.409L172.059 80.74L171.774 80.725L173.604 74.44H175.284L177.114 80.725L176.829 80.74L178.464 74.44H179.979L177.759 82H176.214L174.294 75.445H174.594L172.674 82H171.144ZM183.53 82.18C182.91 82.18 182.395 82.075 181.985 81.865C181.575 81.655 181.27 81.375 181.07 81.025C180.87 80.665 180.77 80.28 180.77 79.87C180.77 79.37 180.9 78.945 181.16 78.595C181.42 78.235 181.79 77.96 182.27 77.77C182.75 77.58 183.325 77.485 183.995 77.485H185.96C185.96 77.045 185.895 76.68 185.765 76.39C185.635 76.1 185.44 75.885 185.18 75.745C184.93 75.595 184.61 75.52 184.22 75.52C183.77 75.52 183.385 75.63 183.065 75.85C182.745 76.06 182.545 76.375 182.465 76.795H180.965C181.025 76.265 181.205 75.815 181.505 75.445C181.815 75.065 182.21 74.775 182.69 74.575C183.17 74.365 183.68 74.26 184.22 74.26C184.93 74.26 185.525 74.385 186.005 74.635C186.485 74.885 186.845 75.24 187.085 75.7C187.335 76.15 187.46 76.69 187.46 77.32V82H186.155L186.035 80.725C185.925 80.925 185.795 81.115 185.645 81.295C185.495 81.475 185.315 81.63 185.105 81.76C184.905 81.89 184.67 81.99 184.4 82.06C184.14 82.14 183.85 82.18 183.53 82.18ZM183.815 80.965C184.135 80.965 184.425 80.9 184.685 80.77C184.945 80.64 185.165 80.465 185.345 80.245C185.535 80.015 185.675 79.76 185.765 79.48C185.865 79.19 185.92 78.895 185.93 78.595V78.55H184.145C183.715 78.55 183.365 78.605 183.095 78.715C182.835 78.815 182.645 78.955 182.525 79.135C182.405 79.315 182.345 79.525 182.345 79.765C182.345 80.015 182.4 80.23 182.51 80.41C182.63 80.58 182.8 80.715 183.02 80.815C183.24 80.915 183.505 80.965 183.815 80.965ZM189.375 82V74.44H190.725L190.815 75.73C191.055 75.28 191.395 74.925 191.835 74.665C192.275 74.395 192.78 74.26 193.35 74.26C193.95 74.26 194.465 74.38 194.895 74.62C195.325 74.86 195.66 75.225 195.9 75.715C196.14 76.195 196.26 76.8 196.26 77.53V82H194.76V77.68C194.76 76.98 194.605 76.45 194.295 76.09C193.985 75.73 193.535 75.55 192.945 75.55C192.555 75.55 192.205 75.645 191.895 75.835C191.585 76.015 191.335 76.285 191.145 76.645C190.965 77.005 190.875 77.445 190.875 77.965V82H189.375ZM201.299 82C200.819 82 200.404 81.925 200.054 81.775C199.704 81.625 199.434 81.375 199.244 81.025C199.054 80.675 198.959 80.2 198.959 79.6V75.715H197.654V74.44H198.959L199.139 72.55H200.459V74.44H202.604V75.715H200.459V79.615C200.459 80.045 200.549 80.34 200.729 80.5C200.909 80.65 201.219 80.725 201.659 80.725H202.529V82H201.299ZM211.216 82C210.736 82 210.321 81.925 209.971 81.775C209.621 81.625 209.351 81.375 209.161 81.025C208.971 80.675 208.876 80.2 208.876 79.6V75.715H207.571V74.44H208.876L209.056 72.55H210.376V74.44H212.521V75.715H210.376V79.615C210.376 80.045 210.466 80.34 210.646 80.5C210.826 80.65 211.136 80.725 211.576 80.725H212.446V82H211.216ZM217.42 82.18C216.71 82.18 216.07 82.015 215.5 81.685C214.94 81.355 214.495 80.895 214.165 80.305C213.845 79.705 213.685 79.015 213.685 78.235C213.685 77.435 213.85 76.74 214.18 76.15C214.51 75.55 214.96 75.085 215.53 74.755C216.1 74.425 216.74 74.26 217.45 74.26C218.17 74.26 218.81 74.425 219.37 74.755C219.93 75.085 220.37 75.545 220.69 76.135C221.02 76.725 221.185 77.42 221.185 78.22C221.185 79.02 221.02 79.715 220.69 80.305C220.37 80.895 219.925 81.355 219.355 81.685C218.785 82.015 218.14 82.18 217.42 82.18ZM217.42 80.89C217.83 80.89 218.2 80.79 218.53 80.59C218.87 80.39 219.14 80.095 219.34 79.705C219.55 79.305 219.655 78.81 219.655 78.22C219.655 77.63 219.555 77.14 219.355 76.75C219.155 76.35 218.885 76.05 218.545 75.85C218.215 75.65 217.85 75.55 217.45 75.55C217.05 75.55 216.68 75.65 216.34 75.85C216 76.05 215.725 76.35 215.515 76.75C215.315 77.14 215.215 77.63 215.215 78.22C215.215 78.81 215.315 79.305 215.515 79.705C215.725 80.095 215.995 80.39 216.325 80.59C216.665 80.79 217.03 80.89 217.42 80.89ZM226.787 82V71.2H228.287V82H226.787ZM233.797 82.18C233.087 82.18 232.447 82.015 231.877 81.685C231.317 81.355 230.872 80.895 230.542 80.305C230.222 79.705 230.062 79.015 230.062 78.235C230.062 77.435 230.227 76.74 230.557 76.15C230.887 75.55 231.337 75.085 231.907 74.755C232.477 74.425 233.117 74.26 233.827 74.26C234.547 74.26 235.187 74.425 235.747 74.755C236.307 75.085 236.747 75.545 237.067 76.135C237.397 76.725 237.562 77.42 237.562 78.22C237.562 79.02 237.397 79.715 237.067 80.305C236.747 80.895 236.302 81.355 235.732 81.685C235.162 82.015 234.517 82.18 233.797 82.18ZM233.797 80.89C234.207 80.89 234.577 80.79 234.907 80.59C235.247 80.39 235.517 80.095 235.717 79.705C235.927 79.305 236.032 78.81 236.032 78.22C236.032 77.63 235.932 77.14 235.732 76.75C235.532 76.35 235.262 76.05 234.922 75.85C234.592 75.65 234.227 75.55 233.827 75.55C233.427 75.55 233.057 75.65 232.717 75.85C232.377 76.05 232.102 76.35 231.892 76.75C231.692 77.14 231.592 77.63 231.592 78.22C231.592 78.81 231.692 79.305 231.892 79.705C232.102 80.095 232.372 80.39 232.702 80.59C233.042 80.79 233.407 80.89 233.797 80.89ZM242.02 85.48C241.33 85.48 240.72 85.39 240.19 85.21C239.66 85.04 239.25 84.775 238.96 84.415C238.67 84.055 238.525 83.615 238.525 83.095C238.525 82.825 238.585 82.55 238.705 82.27C238.825 82 239.02 81.74 239.29 81.49C239.56 81.24 239.925 81.015 240.385 80.815L241.225 81.49C240.715 81.68 240.37 81.905 240.19 82.165C240.02 82.435 239.935 82.695 239.935 82.945C239.935 83.245 240.025 83.495 240.205 83.695C240.385 83.895 240.63 84.045 240.94 84.145C241.26 84.245 241.62 84.295 242.02 84.295C242.41 84.295 242.75 84.24 243.04 84.13C243.33 84.02 243.555 83.865 243.715 83.665C243.875 83.465 243.955 83.23 243.955 82.96C243.955 82.64 243.835 82.37 243.595 82.15C243.355 81.94 242.895 81.815 242.215 81.775C241.645 81.735 241.16 81.68 240.76 81.61C240.37 81.54 240.035 81.455 239.755 81.355C239.485 81.255 239.255 81.145 239.065 81.025C238.885 80.905 238.73 80.78 238.6 80.65V80.305L240.1 78.76L241.315 79.18L239.68 80.695L239.995 80.02C240.105 80.09 240.21 80.16 240.31 80.23C240.41 80.29 240.545 80.345 240.715 80.395C240.885 80.445 241.115 80.49 241.405 80.53C241.695 80.57 242.075 80.61 242.545 80.65C243.225 80.7 243.77 80.82 244.18 81.01C244.6 81.2 244.905 81.455 245.095 81.775C245.285 82.095 245.38 82.475 245.38 82.915C245.38 83.345 245.26 83.755 245.02 84.145C244.79 84.535 244.425 84.855 243.925 85.105C243.435 85.355 242.8 85.48 242.02 85.48ZM242.02 79.675C241.38 79.675 240.835 79.555 240.385 79.315C239.945 79.075 239.605 78.75 239.365 78.34C239.135 77.93 239.02 77.475 239.02 76.975C239.02 76.465 239.135 76.01 239.365 75.61C239.605 75.2 239.95 74.875 240.4 74.635C240.85 74.385 241.39 74.26 242.02 74.26C242.65 74.26 243.185 74.385 243.625 74.635C244.075 74.875 244.415 75.2 244.645 75.61C244.885 76.01 245.005 76.465 245.005 76.975C245.005 77.475 244.885 77.93 244.645 78.34C244.415 78.75 244.075 79.075 243.625 79.315C243.185 79.555 242.65 79.675 242.02 79.675ZM242.02 78.475C242.51 78.475 242.9 78.35 243.19 78.1C243.48 77.84 243.625 77.465 243.625 76.975C243.625 76.485 243.48 76.115 243.19 75.865C242.9 75.605 242.51 75.475 242.02 75.475C241.53 75.475 241.135 75.605 240.835 75.865C240.535 76.115 240.385 76.485 240.385 76.975C240.385 77.465 240.535 77.84 240.835 78.1C241.135 78.35 241.53 78.475 242.02 78.475ZM243.25 75.625L242.89 74.44H245.995V75.475L243.25 75.625ZM254.788 82.18C254.078 82.18 253.438 82.015 252.868 81.685C252.308 81.355 251.863 80.895 251.533 80.305C251.213 79.705 251.053 79.015 251.053 78.235C251.053 77.435 251.218 76.74 251.548 76.15C251.878 75.55 252.328 75.085 252.898 74.755C253.468 74.425 254.108 74.26 254.818 74.26C255.538 74.26 256.178 74.425 256.738 74.755C257.298 75.085 257.738 75.545 258.058 76.135C258.388 76.725 258.553 77.42 258.553 78.22C258.553 79.02 258.388 79.715 258.058 80.305C257.738 80.895 257.293 81.355 256.723 81.685C256.153 82.015 255.508 82.18 254.788 82.18ZM254.788 80.89C255.198 80.89 255.568 80.79 255.898 80.59C256.238 80.39 256.508 80.095 256.708 79.705C256.918 79.305 257.023 78.81 257.023 78.22C257.023 77.63 256.923 77.14 256.723 76.75C256.523 76.35 256.253 76.05 255.913 75.85C255.583 75.65 255.218 75.55 254.818 75.55C254.418 75.55 254.048 75.65 253.708 75.85C253.368 76.05 253.093 76.35 252.883 76.75C252.683 77.14 252.583 77.63 252.583 78.22C252.583 78.81 252.683 79.305 252.883 79.705C253.093 80.095 253.363 80.39 253.693 80.59C254.033 80.79 254.398 80.89 254.788 80.89ZM263.092 82.18C262.502 82.18 261.987 82.06 261.547 81.82C261.117 81.58 260.782 81.22 260.542 80.74C260.312 80.26 260.197 79.655 260.197 78.925V74.44H261.697V78.76C261.697 79.47 261.852 80.005 262.162 80.365C262.472 80.725 262.917 80.905 263.497 80.905C263.887 80.905 264.237 80.81 264.547 80.62C264.867 80.43 265.117 80.155 265.297 79.795C265.477 79.435 265.567 78.995 265.567 78.475V74.44H267.067V82H265.732L265.627 80.71C265.397 81.17 265.062 81.53 264.622 81.79C264.182 82.05 263.672 82.18 263.092 82.18ZM272.241 82C271.761 82 271.346 81.925 270.996 81.775C270.646 81.625 270.376 81.375 270.186 81.025C269.996 80.675 269.901 80.2 269.901 79.6V75.715H268.596V74.44H269.901L270.081 72.55H271.401V74.44H273.546V75.715H271.401V79.615C271.401 80.045 271.491 80.34 271.671 80.5C271.851 80.65 272.161 80.725 272.601 80.725H273.471V82H272.241ZM276.475 78.865L276.415 76.495H276.955C277.365 76.495 277.75 76.47 278.11 76.42C278.48 76.37 278.805 76.275 279.085 76.135C279.365 75.985 279.585 75.775 279.745 75.505C279.915 75.225 280 74.865 280 74.425C280 74.035 279.92 73.705 279.76 73.435C279.6 73.155 279.37 72.945 279.07 72.805C278.78 72.655 278.445 72.58 278.065 72.58C277.675 72.58 277.33 72.655 277.03 72.805C276.74 72.945 276.515 73.15 276.355 73.42C276.195 73.68 276.115 73.995 276.115 74.365H274.69C274.69 73.765 274.83 73.235 275.11 72.775C275.39 72.315 275.785 71.96 276.295 71.71C276.805 71.45 277.395 71.32 278.065 71.32C278.725 71.32 279.31 71.445 279.82 71.695C280.33 71.945 280.73 72.3 281.02 72.76C281.31 73.22 281.455 73.775 281.455 74.425C281.455 75.145 281.3 75.735 280.99 76.195C280.68 76.645 280.25 76.98 279.7 77.2C279.16 77.41 278.535 77.515 277.825 77.515L277.795 78.865H276.475ZM277.135 82.075C276.845 82.075 276.605 81.985 276.415 81.805C276.235 81.615 276.145 81.39 276.145 81.13C276.145 80.86 276.235 80.635 276.415 80.455C276.605 80.265 276.845 80.17 277.135 80.17C277.425 80.17 277.66 80.265 277.84 80.455C278.02 80.635 278.11 80.86 278.11 81.13C278.11 81.39 278.02 81.615 277.84 81.805C277.66 81.985 277.425 82.075 277.135 82.075Z" fill="#00366D"/>
<path d="M39.75 128C39.75 116.402 49.152 107 60.75 107H153.25C164.848 107 174.25 116.402 174.25 128C174.25 139.598 164.848 149 153.25 149H60.75C49.152 149 39.75 139.598 39.75 128Z" fill="#EE1D52"/>
<path d="M70.8989 134V130.31L67.3589 123.5H69.6539L72.1289 128.69H71.7239L74.1839 123.5H76.4639L72.9239 130.31V134H70.8989ZM79.9427 134.18C79.1827 134.18 78.5077 134.02 77.9177 133.7C77.3377 133.37 76.8827 132.915 76.5527 132.335C76.2327 131.745 76.0727 131.065 76.0727 130.295C76.0727 129.505 76.2327 128.81 76.5527 128.21C76.8827 127.6 77.3377 127.125 77.9177 126.785C78.4977 126.435 79.1727 126.26 79.9427 126.26C80.6927 126.26 81.3477 126.425 81.9077 126.755C82.4677 127.085 82.9027 127.53 83.2127 128.09C83.5227 128.65 83.6777 129.285 83.6777 129.995C83.6777 130.095 83.6777 130.21 83.6777 130.34C83.6777 130.46 83.6677 130.585 83.6477 130.715H77.5127V129.485H81.6377C81.6077 128.995 81.4327 128.61 81.1127 128.33C80.8027 128.05 80.4127 127.91 79.9427 127.91C79.6027 127.91 79.2877 127.99 78.9977 128.15C78.7077 128.3 78.4777 128.535 78.3077 128.855C78.1477 129.175 78.0677 129.58 78.0677 130.07V130.505C78.0677 130.915 78.1427 131.275 78.2927 131.585C78.4527 131.885 78.6727 132.12 78.9527 132.29C79.2327 132.45 79.5577 132.53 79.9277 132.53C80.2977 132.53 80.6027 132.45 80.8427 132.29C81.0927 132.13 81.2777 131.925 81.3977 131.675H83.4677C83.3277 132.145 83.0927 132.57 82.7627 132.95C82.4327 133.33 82.0277 133.63 81.5477 133.85C81.0677 134.07 80.5327 134.18 79.9427 134.18ZM88.4262 134.18C87.7362 134.18 87.1362 134.07 86.6262 133.85C86.1162 133.63 85.7162 133.325 85.4262 132.935C85.1362 132.545 84.9712 132.105 84.9312 131.615H86.9412C86.9912 131.805 87.0762 131.98 87.1962 132.14C87.3162 132.29 87.4762 132.41 87.6762 132.5C87.8762 132.59 88.1162 132.635 88.3962 132.635C88.6662 132.635 88.8862 132.6 89.0562 132.53C89.2262 132.45 89.3512 132.345 89.4312 132.215C89.5212 132.085 89.5662 131.95 89.5662 131.81C89.5662 131.6 89.5062 131.44 89.3862 131.33C89.2662 131.21 89.0912 131.115 88.8612 131.045C88.6312 130.975 88.3512 130.905 88.0212 130.835C87.6612 130.765 87.3062 130.68 86.9562 130.58C86.6162 130.47 86.3112 130.335 86.0412 130.175C85.7712 130.015 85.5562 129.81 85.3962 129.56C85.2362 129.31 85.1562 129 85.1562 128.63C85.1562 128.18 85.2762 127.78 85.5162 127.43C85.7562 127.07 86.1062 126.785 86.5662 126.575C87.0262 126.365 87.5812 126.26 88.2312 126.26C89.1412 126.26 89.8612 126.465 90.3912 126.875C90.9212 127.285 91.2362 127.85 91.3362 128.57H89.4312C89.3712 128.34 89.2362 128.16 89.0262 128.03C88.8262 127.89 88.5562 127.82 88.2162 127.82C87.8562 127.82 87.5812 127.885 87.3912 128.015C87.2012 128.145 87.1062 128.315 87.1062 128.525C87.1062 128.665 87.1662 128.79 87.2862 128.9C87.4162 129.01 87.5962 129.105 87.8262 129.185C88.0562 129.255 88.3362 129.325 88.6662 129.395C89.2462 129.515 89.7562 129.655 90.1962 129.815C90.6362 129.965 90.9812 130.185 91.2312 130.475C91.4812 130.755 91.6062 131.165 91.6062 131.705C91.6062 132.185 91.4762 132.615 91.2162 132.995C90.9562 133.365 90.5862 133.655 90.1062 133.865C89.6362 134.075 89.0762 134.18 88.4262 134.18ZM92.6596 135.845L93.5146 132.035H95.4646L93.9796 135.845H92.6596ZM100.541 134V123.2H102.566V134H100.541ZM108.11 134.18C107.39 134.18 106.74 134.015 106.16 133.685C105.59 133.345 105.135 132.88 104.795 132.29C104.465 131.69 104.3 131.005 104.3 130.235C104.3 129.445 104.465 128.755 104.795 128.165C105.135 127.565 105.595 127.1 106.175 126.77C106.755 126.43 107.405 126.26 108.125 126.26C108.855 126.26 109.505 126.43 110.075 126.77C110.655 127.1 111.11 127.565 111.44 128.165C111.78 128.755 111.95 129.44 111.95 130.22C111.95 131 111.78 131.69 111.44 132.29C111.11 132.88 110.655 133.345 110.075 133.685C109.495 134.015 108.84 134.18 108.11 134.18ZM108.11 132.425C108.45 132.425 108.75 132.345 109.01 132.185C109.28 132.025 109.49 131.78 109.64 131.45C109.8 131.12 109.88 130.71 109.88 130.22C109.88 129.73 109.8 129.325 109.64 129.005C109.49 128.675 109.28 128.43 109.01 128.27C108.75 128.1 108.455 128.015 108.125 128.015C107.805 128.015 107.51 128.1 107.24 128.27C106.97 128.43 106.755 128.675 106.595 129.005C106.445 129.325 106.37 129.73 106.37 130.22C106.37 130.71 106.445 131.12 106.595 131.45C106.755 131.78 106.965 132.025 107.225 132.185C107.495 132.345 107.79 132.425 108.11 132.425ZM116.467 137.48C115.747 137.48 115.117 137.39 114.577 137.21C114.037 137.04 113.617 136.775 113.317 136.415C113.027 136.065 112.882 135.63 112.882 135.11C112.882 134.76 112.972 134.43 113.152 134.12C113.332 133.81 113.592 133.53 113.932 133.28C114.282 133.02 114.717 132.8 115.237 132.62L116.002 133.61C115.542 133.76 115.207 133.945 114.997 134.165C114.797 134.395 114.697 134.64 114.697 134.9C114.697 135.13 114.772 135.325 114.922 135.485C115.082 135.645 115.292 135.76 115.552 135.83C115.822 135.91 116.122 135.95 116.452 135.95C116.772 135.95 117.047 135.91 117.277 135.83C117.517 135.75 117.702 135.63 117.832 135.47C117.972 135.32 118.042 135.14 118.042 134.93C118.042 134.66 117.947 134.44 117.757 134.27C117.567 134.1 117.187 133.995 116.617 133.955C116.107 133.915 115.652 133.86 115.252 133.79C114.862 133.71 114.517 133.62 114.217 133.52C113.917 133.41 113.662 133.29 113.452 133.16C113.252 133.03 113.087 132.9 112.957 132.77V132.425L114.562 130.7L116.017 131.165L114.127 133.025L114.697 132.035C114.807 132.095 114.912 132.155 115.012 132.215C115.122 132.265 115.257 132.315 115.417 132.365C115.577 132.405 115.787 132.445 116.047 132.485C116.307 132.525 116.637 132.56 117.037 132.59C117.697 132.65 118.237 132.775 118.657 132.965C119.087 133.155 119.402 133.41 119.602 133.73C119.802 134.04 119.902 134.425 119.902 134.885C119.902 135.335 119.777 135.755 119.527 136.145C119.287 136.545 118.912 136.865 118.402 137.105C117.892 137.355 117.247 137.48 116.467 137.48ZM116.467 131.765C115.837 131.765 115.292 131.645 114.832 131.405C114.382 131.155 114.032 130.825 113.782 130.415C113.542 129.995 113.422 129.53 113.422 129.02C113.422 128.51 113.542 128.05 113.782 127.64C114.032 127.22 114.382 126.885 114.832 126.635C115.292 126.385 115.837 126.26 116.467 126.26C117.107 126.26 117.652 126.385 118.102 126.635C118.562 126.885 118.912 127.22 119.152 127.64C119.392 128.05 119.512 128.51 119.512 129.02C119.512 129.53 119.392 129.995 119.152 130.415C118.912 130.825 118.562 131.155 118.102 131.405C117.652 131.645 117.107 131.765 116.467 131.765ZM116.467 130.22C116.857 130.22 117.172 130.12 117.412 129.92C117.652 129.72 117.772 129.425 117.772 129.035C117.772 128.645 117.652 128.35 117.412 128.15C117.172 127.94 116.857 127.835 116.467 127.835C116.087 127.835 115.772 127.94 115.522 128.15C115.282 128.35 115.162 128.645 115.162 129.035C115.162 129.425 115.282 129.72 115.522 129.92C115.772 130.12 116.087 130.22 116.467 130.22ZM117.727 127.88L117.397 126.44H120.502V127.64L117.727 127.88ZM129.248 134.18C128.528 134.18 127.878 134.015 127.298 133.685C126.728 133.345 126.273 132.88 125.933 132.29C125.603 131.69 125.438 131.005 125.438 130.235C125.438 129.445 125.603 128.755 125.933 128.165C126.273 127.565 126.733 127.1 127.313 126.77C127.893 126.43 128.543 126.26 129.263 126.26C129.993 126.26 130.643 126.43 131.213 126.77C131.793 127.1 132.248 127.565 132.578 128.165C132.918 128.755 133.088 129.44 133.088 130.22C133.088 131 132.918 131.69 132.578 132.29C132.248 132.88 131.793 133.345 131.213 133.685C130.633 134.015 129.978 134.18 129.248 134.18ZM129.248 132.425C129.588 132.425 129.888 132.345 130.148 132.185C130.418 132.025 130.628 131.78 130.778 131.45C130.938 131.12 131.018 130.71 131.018 130.22C131.018 129.73 130.938 129.325 130.778 129.005C130.628 128.675 130.418 128.43 130.148 128.27C129.888 128.1 129.593 128.015 129.263 128.015C128.943 128.015 128.648 128.1 128.378 128.27C128.108 128.43 127.893 128.675 127.733 129.005C127.583 129.325 127.508 129.73 127.508 130.22C127.508 130.71 127.583 131.12 127.733 131.45C127.893 131.78 128.103 132.025 128.363 132.185C128.633 132.345 128.928 132.425 129.248 132.425ZM137.653 134.18C137.043 134.18 136.518 134.055 136.078 133.805C135.648 133.545 135.318 133.17 135.088 132.68C134.858 132.18 134.743 131.565 134.743 130.835V126.44H136.768V130.625C136.768 131.235 136.893 131.695 137.143 132.005C137.403 132.315 137.798 132.47 138.328 132.47C138.668 132.47 138.968 132.395 139.228 132.245C139.488 132.085 139.693 131.86 139.843 131.57C140.003 131.27 140.083 130.905 140.083 130.475V126.44H142.093V134H140.323L140.158 132.77C139.938 133.2 139.613 133.545 139.183 133.805C138.753 134.055 138.243 134.18 137.653 134.18ZM147.481 134C146.951 134 146.486 133.92 146.086 133.76C145.696 133.59 145.391 133.315 145.171 132.935C144.951 132.545 144.841 132.015 144.841 131.345V128.135H143.551V126.44H144.841L145.066 124.385H146.866V126.44H148.861V128.135H146.866V131.375C146.866 131.715 146.941 131.95 147.091 132.08C147.241 132.21 147.496 132.275 147.856 132.275H148.846V134H147.481Z" fill="white"/>
<path d="M219.368 133.18C218.318 133.18 217.413 132.955 216.653 132.505C215.903 132.045 215.323 131.41 214.913 130.6C214.513 129.78 214.313 128.835 214.313 127.765C214.313 126.695 214.513 125.75 214.913 124.93C215.323 124.11 215.903 123.47 216.653 123.01C217.413 122.55 218.318 122.32 219.368 122.32C220.638 122.32 221.678 122.635 222.488 123.265C223.298 123.895 223.803 124.785 224.003 125.935H221.798C221.668 125.375 221.393 124.94 220.973 124.63C220.563 124.31 220.023 124.15 219.353 124.15C218.733 124.15 218.198 124.3 217.748 124.6C217.308 124.89 216.968 125.305 216.728 125.845C216.488 126.375 216.368 127.015 216.368 127.765C216.368 128.505 216.488 129.145 216.728 129.685C216.968 130.225 217.308 130.64 217.748 130.93C218.198 131.22 218.733 131.365 219.353 131.365C220.023 131.365 220.563 131.22 220.973 130.93C221.383 130.63 221.653 130.215 221.783 129.685H224.003C223.803 130.775 223.298 131.63 222.488 132.25C221.678 132.87 220.638 133.18 219.368 133.18ZM228.237 133.18C227.607 133.18 227.087 133.08 226.677 132.88C226.267 132.67 225.962 132.395 225.762 132.055C225.572 131.705 225.477 131.32 225.477 130.9C225.477 130.44 225.592 130.035 225.822 129.685C226.062 129.335 226.417 129.06 226.887 128.86C227.367 128.66 227.967 128.56 228.687 128.56H230.562C230.562 128.19 230.512 127.885 230.412 127.645C230.312 127.395 230.157 127.21 229.947 127.09C229.737 126.97 229.457 126.91 229.107 126.91C228.727 126.91 228.402 126.995 228.132 127.165C227.872 127.325 227.712 127.575 227.652 127.915H225.687C225.737 127.375 225.912 126.91 226.212 126.52C226.522 126.12 226.927 125.81 227.427 125.59C227.937 125.37 228.502 125.26 229.122 125.26C229.832 125.26 230.447 125.38 230.967 125.62C231.487 125.86 231.887 126.205 232.167 126.655C232.447 127.105 232.587 127.66 232.587 128.32V133H230.877L230.652 131.845C230.542 132.045 230.412 132.225 230.262 132.385C230.112 132.545 229.937 132.685 229.737 132.805C229.537 132.925 229.312 133.015 229.062 133.075C228.812 133.145 228.537 133.18 228.237 133.18ZM228.717 131.62C228.977 131.62 229.207 131.575 229.407 131.485C229.617 131.385 229.797 131.255 229.947 131.095C230.097 130.925 230.212 130.735 230.292 130.525C230.382 130.305 230.442 130.07 230.472 129.82V129.805H228.927C228.617 129.805 228.362 129.845 228.162 129.925C227.972 129.995 227.832 130.1 227.742 130.24C227.652 130.38 227.607 130.54 227.607 130.72C227.607 130.92 227.652 131.085 227.742 131.215C227.832 131.345 227.962 131.445 228.132 131.515C228.302 131.585 228.497 131.62 228.717 131.62ZM234.476 133V125.44H236.261L236.411 126.67C236.641 126.25 236.966 125.91 237.386 125.65C237.816 125.39 238.326 125.26 238.916 125.26C239.546 125.26 240.076 125.39 240.506 125.65C240.936 125.91 241.261 126.29 241.481 126.79C241.711 127.29 241.826 127.905 241.826 128.635V133H239.816V128.83C239.816 128.23 239.686 127.77 239.426 127.45C239.176 127.13 238.786 126.97 238.256 126.97C237.916 126.97 237.611 127.05 237.341 127.21C237.081 127.37 236.876 127.6 236.726 127.9C236.576 128.19 236.501 128.545 236.501 128.965V133H234.476ZM247.394 133.18C246.634 133.18 245.959 133.01 245.369 132.67C244.779 132.33 244.319 131.865 243.989 131.275C243.659 130.685 243.494 130.01 243.494 129.25C243.494 128.47 243.659 127.785 243.989 127.195C244.319 126.595 244.779 126.125 245.369 125.785C245.959 125.435 246.634 125.26 247.394 125.26C248.364 125.26 249.179 125.515 249.839 126.025C250.499 126.535 250.919 127.235 251.099 128.125H248.954C248.864 127.775 248.674 127.5 248.384 127.3C248.104 127.1 247.769 127 247.379 127C247.029 127 246.714 127.09 246.434 127.27C246.164 127.44 245.949 127.695 245.789 128.035C245.639 128.365 245.564 128.76 245.564 129.22C245.564 129.57 245.609 129.885 245.699 130.165C245.789 130.435 245.914 130.67 246.074 130.87C246.234 131.06 246.424 131.205 246.644 131.305C246.874 131.405 247.119 131.455 247.379 131.455C247.639 131.455 247.874 131.41 248.084 131.32C248.304 131.23 248.489 131.105 248.639 130.945C248.789 130.775 248.894 130.57 248.954 130.33H251.099C250.919 131.2 250.494 131.895 249.824 132.415C249.164 132.925 248.354 133.18 247.394 133.18ZM256.475 133.18C255.715 133.18 255.04 133.02 254.45 132.7C253.87 132.37 253.415 131.915 253.085 131.335C252.765 130.745 252.605 130.065 252.605 129.295C252.605 128.505 252.765 127.81 253.085 127.21C253.415 126.6 253.87 126.125 254.45 125.785C255.03 125.435 255.705 125.26 256.475 125.26C257.225 125.26 257.88 125.425 258.44 125.755C259 126.085 259.435 126.53 259.745 127.09C260.055 127.65 260.21 128.285 260.21 128.995C260.21 129.095 260.21 129.21 260.21 129.34C260.21 129.46 260.2 129.585 260.18 129.715H254.045V128.485H258.17C258.14 127.995 257.965 127.61 257.645 127.33C257.335 127.05 256.945 126.91 256.475 126.91C256.135 126.91 255.82 126.99 255.53 127.15C255.24 127.3 255.01 127.535 254.84 127.855C254.68 128.175 254.6 128.58 254.6 129.07V129.505C254.6 129.915 254.675 130.275 254.825 130.585C254.985 130.885 255.205 131.12 255.485 131.29C255.765 131.45 256.09 131.53 256.46 131.53C256.83 131.53 257.135 131.45 257.375 131.29C257.625 131.13 257.81 130.925 257.93 130.675H260C259.86 131.145 259.625 131.57 259.295 131.95C258.965 132.33 258.56 132.63 258.08 132.85C257.6 133.07 257.065 133.18 256.475 133.18ZM261.868 133V122.2H263.893V133H261.868Z" fill="#00366D"/>
</g>
<defs>
<filter id="filter0_d_1420_934" x="0" y="0" width="329" height="185" filterUnits="userSpaceOnUse" color-interpolation-filters="sRGB">
<feFlood flood-opacity="0" result="BackgroundImageFix"/>
<feColorMatrix in="SourceAlpha" type="matrix" values="0 0 0 0 0 0 0 0 0 0 0 0 0 0 0 0 0 0 127 0" result="hardAlpha"/>
<feOffset/>
<feGaussianBlur stdDeviation="8"/>
<feComposite in2="hardAlpha" operator="out"/>
<feColorMatrix type="matrix" values="0 0 0 0 0 0 0 0 0 0 0 0 0 0 0 0 0 0 0.12 0"/>
<feBlend mode="normal" in2="BackgroundImageFix" result="effect1_dropShadow_1420_934"/>
<feBlend mode="normal" in="SourceGraphic" in2="effect1_dropShadow_1420_934" result="shape"/>
</filter>
</defs>
</svg>
